<?xml version="1.0" encoding="utf-8"?>
<!-- Generator: Adobe Illustrator 19.0.0, SVG Export Plug-In . SVG Version: 6.00 Build 0)  -->
<svg version="1.1" id="Capa_1" xmlns="http://www.w3.org/2000/svg" xmlns:xlink="http://www.w3.org/1999/xlink" x="0px" y="0px"
	 viewBox="-289 412.9 16 16" style="enable-background:new -289 412.9 16 16;" xml:space="preserve">
<path d="M-286.9,416.5c0-0.2,0.2-0.4,0.4-0.4h1.1c0.2,0,0.3,0.1,0.4,0.3l0.3,1.2h8.4c0.2,0,0.4,0.2,0.4,0.4c0,0,0,0.1,0,0.1
	l-1.1,4.3c0,0.2-0.2,0.3-0.4,0.3h-6.5c-0.2,0-0.3-0.1-0.4-0.3l-1.4-5.5h-0.8C-286.7,416.9-286.9,416.7-286.9,416.5z M-284.6,418.3
	l0.4,1.4h1v-1.4H-284.6z M-282.5,418.3v1.4h1.4v-1.4H-282.5z M-280.4,418.3v1.4h1.4v-1.4H-280.4z M-278.2,418.3v1.4h1l0.4-1.4
	H-278.2z M-277.4,420.5h-0.8v1.4h0.4L-277.4,420.5z M-278.9,420.5h-1.4v1.4h1.4V420.5z M-281.1,420.5h-1.4v1.4h1.4V420.5z
	 M-283.3,420.5h-0.8l0.4,1.4h0.4V420.5z M-283.3,424.1c-0.4,0-0.7,0.3-0.7,0.7s0.3,0.7,0.7,0.7c0.4,0,0.7-0.3,0.7-0.7
	S-282.9,424.1-283.3,424.1z M-284.7,424.8c0-0.8,0.6-1.4,1.4-1.4c0.8,0,1.4,0.6,1.4,1.4c0,0.8-0.6,1.4-1.4,1.4
	C-284.1,426.3-284.7,425.6-284.7,424.8z M-278.2,424.1c-0.4,0-0.7,0.3-0.7,0.7s0.3,0.7,0.7,0.7c0.4,0,0.7-0.3,0.7-0.7
	S-277.8,424.1-278.2,424.1z M-279.6,424.8c0-0.8,0.6-1.4,1.4-1.4c0.8,0,1.4,0.6,1.4,1.4c0,0.8-0.6,1.4-1.4,1.4
	C-279,426.3-279.6,425.6-279.6,424.8z"/>
</svg>
