<?xml version="1.0" encoding="utf-8"?>
<!-- Generator: Adobe Illustrator 19.0.0, SVG Export Plug-In . SVG Version: 6.00 Build 0)  -->
<svg version="1.1" id="Capa_1" xmlns="http://www.w3.org/2000/svg" xmlns:xlink="http://www.w3.org/1999/xlink" x="0px" y="0px"
	 viewBox="0 0 171.3 21" style="enable-background:new 0 0 171.3 21;" xml:space="preserve">
<style type="text/css">
	.st0{fill:#D99EA6;}
</style>
<path id="XMLID_40_" class="st0" d="M75.6,9.9H11.1c-0.8,0-1.5,0.7-1.5,1.5v0c0,0.8,0.7,1.5,1.5,1.5h64.5c0.8,0,1.5-0.7,1.5-1.5v0
	C77.1,10.5,76.5,9.9,75.6,9.9z"/>
<path id="XMLID_42_" class="st0" d="M159.1,9.9H94.6c-0.8,0-1.5,0.7-1.5,1.5v0c0,0.8,0.7,1.5,1.5,1.5h64.5c0.8,0,1.5-0.7,1.5-1.5v0
	C160.6,10.5,160,9.9,159.1,9.9z"/>
<circle id="XMLID_41_" class="st0" cx="85.1" cy="11.4" r="2.2"/>
</svg>
